inDegrees=yes
name=ik_CORRECTED_MT_2026-09-08_17h41_01210270-000-000_orientations
DataType=double
version=3
OpenSimVersion=4.5
endheader
time	pelvis_tilt	pelvis_list	pelvis_rotation	pelvis_tx	pelvis_ty	pelvis_tz	hip_flexion_r	hip_adduction_r	hip_rotation_r	knee_angle_r	knee_angle_r_beta	ankle_angle_r	subtalar_angle_r	mtp_angle_r	hip_flexion_l	hip_adduction_l	hip_rotation_l	knee_angle_l	knee_angle_l_beta	ankle_angle_l	subtalar_angle_l	mtp_angle_l	lumbar_extension	lumbar_bending	lumbar_rotation	arm_flex_r	arm_add_r	arm_rot_r	elbow_flex_r	pro_sup_r	wrist_flex_r	wrist_dev_r	arm_flex_l	arm_add_l	arm_rot_l	elbow_flex_l	pro_sup_l	wrist_flex_l	wrist_dev_l
42.675	3.270630217408349	-2.312815908754379	-735.1298270989051	0	0.9399999999999999	0	0.1052335236036394	7.020215846345907	-0.2379416668935399	2.925720654705795	0.05106345841822026	-3.209451328078317	0	0	29.83208070524529	-11.71747674925223	-2.301025948788988	58.80381575588723	1.02632019767635	20.41842627315694	0	0	-3.949233668742719	3.915264397520005	7.762869924463419	12.44108931049017	-18.18964709487454	7.282299491110842	0.08195302383902024	45.00000025534012	0	0	-7.60593603799718	-5.482317183911098	-10.79052744996183	0.1020335449211337	45.00000025534012	0	0
42.7	3.149025042992791	-2.167397865801946	-736.4122805866187	0	0.9399999999999999	0	-0.521025387813786	6.866927249091904	0.3394593413522455	3.344032124666687	0.05836437086789518	-2.415261883275779	0	0	29.28558349115896	-11.90094772526142	-3.516006550597961	50.45838392058485	0.8806649346495706	19.86303260807424	0	0	-4.257182291232793	3.595586357990439	8.278229451399477	14.41856375224788	-18.59345000713915	9.115889778512891	0.07760003504494173	45.00000025534012	0	0	-7.351996938861851	-5.252168238173579	-11.45676750594045	0.1323897098282	45.00000025534012	0	0
42.725	3.101843214824664	-2.111746314397772	-737.8136791337341	0	0.9399999999999999	0	-1.309966808605712	6.75277936543281	1.192052884612302	3.744982762168761	0.06536227963027662	-1.530985076296287	0	0	28.06487426295343	-10.83382818853579	-4.639624659748722	40.63402384302669	0.7091975043946952	18.28298905818808	0	0	-4.535385264870547	3.281727470872419	8.926790246293148	16.14470980269345	-18.83477818348831	10.81001568585549	0.07504991093210842	45.00000025534012	0	0	-7.260996400213092	-5.117424034578882	-11.99448263484943	0.1778956865801904	45.00000025534012	0	0
42.75	2.886352742605122	-2.140970006655861	-739.3879911898035	0	0.9399999999999999	0	-1.923113279221262	6.741453681781245	2.370277076429673	4.225360370969555	0.07374645055670775	-0.6520679405505798	0	0	27.03260076187927	-9.441335801061525	-4.937562596466527	30.79157831292619	0.5374144234462428	15.14501463975701	0	0	-4.702461663162224	3.092942975441167	9.565228705290057	17.80730888862577	-18.98208893456098	12.58620642062367	0.07442125023574693	45.00000025534012	0	0	-7.150122270831458	-4.967873549242024	-12.6461841989961	0.2369997690528977	45.00000025534012	0	0
42.775	2.826168577182594	-2.256864546602397	-741.1392419048969	0	0.9399999999999999	0	-2.759723053739095	6.735930933549053	3.775891869079409	4.74481794965567	0.08281269562921799	0.2719772608303622	0	0	26.80930716746795	-7.704221593847886	-3.592096667798705	22.41845432992873	0.3912758412652355	11.22335991411285	0	0	-5.106205860271561	2.925112228828479	10.2580536735266	19.34979322053563	-19.03484818039002	14.37863569706263	0.07498936416740934	45.00000025534012	0	0	-6.966806458648184	-4.812026488594181	-13.30098520466168	0.3009812314757647	45.00000025534012	0	0
42.8	2.992696420413857	-2.416962122705922	-742.9724213951652	0	0.9399999999999999	0	-3.780122842989021	6.600486114793777	5.234985053885817	5.511325756239007	0.09619078059633708	1.392626491291449	0	0	27.04962698431289	-6.067020490466617	-0.9624449763268466	15.60305301177571	0.2723246484187037	6.326458605905996	0	0	-5.763230939621022	2.681524350406631	10.94590600958786	20.78334431926958	-19.00176421842168	16.0968295141128	0.07679179214160009	45.00000025534012	0	0	-6.698282783542499	-4.696698182502294	-13.79171091671888	0.3418066536600992	45.00000025534012	0	0
42.825	3.323872420272929	-2.627002850371908	-744.9441083548322	0	0.9399999999999999	0	-4.84925349155349	6.3823832538621	6.709892786309597	6.596145552057177	0.1151244578241768	2.656901048281047	0	0	27.1265441352092	-4.482498521198525	1.281385095736964	10.11179674394129	0.1764841464742175	0.6556618073004646	0	0	-6.538716225961652	2.352252371927269	11.66463103430867	21.90657940902129	-18.82552417141713	17.74773758037601	0.07854354259369296	45.00000025534012	0	0	-6.386851879645605	-4.631509260335368	-14.11042443908669	0.357817356979298	45.00000025534012	0	0
42.85	3.58749815344676	-2.82484887773888	-746.8961531609855	0	0.9399999999999999	0	-5.837512304842393	6.052270455102306	7.941477380287942	7.908582142608806	0.1380307975529514	4.111111584305089	0	0	27.17524659140497	-3.563144589371744	2.220843021108098	6.241522683138018	0.1089351211586692	-4.777999997141138	0	0	-7.077228497807533	1.956011454170123	12.23802062940434	22.6196039585392	-18.46965924186186	19.27709734603787	0.08061655114594737	45.00000025534012	0	0	-6.190012306562996	-4.666794883851813	-14.25827837517995	0.3345185319113478	45.00000025534012	0	0
42.875	3.878941767759148	-3.038235447600508	-748.6073862248369	0	0.9399999999999999	0	-6.893213251652722	5.648654146258615	9.016678253936128	9.27361468178395	0.1618551097584161	5.721677763388463	0	0	26.86420240940312	-4.320929547550069	2.928639158544804	3.822171301202847	0.06670947378122558	-11.32128256827936	0	0	-7.555387804730945	1.540322863023943	12.47353963138346	22.9510654017655	-17.99370122129346	20.61340595198792	0.08204822585567098	45.00000025534012	0	0	-5.999363811882721	-4.832091181170046	-14.14711252314784	0.3033290026017967	45.00000025534012	0	0
42.9	4.654614925006208	-3.289490829614587	-749.8731645836949	0	0.9399999999999999	0	-8.425305474617803	4.97692431885657	9.990342437249161	10.65328718017621	0.1859349374545772	7.332291265564288	0	0	25.09427882368199	-4.066638697891471	3.359217299227404	2.313288873197927	0.04037450738705343	-17.64237212929759	0	0	-8.352021467548019	0.964455910919119	12.32914131257613	22.81179199328716	-17.518399697161	21.4655726448207	0.08323808689883741	45.00000025534012	0	0	-5.827099625886601	-5.062604483518584	-13.75200715688796	0.2718922115058077	45.00000025534012	0	0
42.925	5.318384686039466	-3.1212995554303	-750.8418939844011	0	0.9399999999999999	0	-9.654643381979508	3.912662439239093	10.76718405673284	11.99218166324972	0.2093030545209974	8.871210163272529	0	0	22.54798851976976	-2.378182973029726	4.56196343279949	1.46852187829056	0.0256305419137417	-20.613790578223	0	0	-8.765589582910296	0.05498978860182962	11.98777692450199	22.17290442867554	-16.97948459222935	21.67163298686009	0.08514661767608113	45.00000025534012	0	0	-5.585636652947518	-5.362330769085513	-13.15608369499003	0.2381154041667239	45.00000025534012	0	0
42.95	5.287550749053582	-2.567575325180482	-751.8102532431607	0	0.9399999999999999	0	-10.05615676544031	2.801122700062156	11.32669167832353	13.42186340255719	0.234255708127552	10.49893494129373	0	0	22.30414375068955	-1.912169449863515	4.817437097422209	3.445803224148733	0.06014061163723157	-20.96110758227971	0	0	-8.29063150399416	-0.8673210623551231	11.57311995587592	21.0676170523572	-16.3224843876288	21.40947527451545	0.08681104952718016	45.00000025534012	0	0	-5.266331420570486	-5.678642375106585	-12.65610332304516	0.2113558204951203	45.00000025534012	0	0
42.975	5.173466561162215	-2.265753363677795	-752.6937580257447	0	0.9399999999999999	0	-10.15427029328171	1.8778339777579	11.64594128527111	15.3846502876504	0.2685128017873922	12.50985484697733	0	0	22.98142275249875	-1.829118715493924	5.729695403064738	5.041069133028795	0.0879832541920085	-21.66831799875585	0	0	-7.503526692329717	-1.413201706099271	11.18901539190787	19.08089717250719	-15.6718262704969	20.47357950927758	0.08863065429834122	45.00000025534012	0	0	-5.211502257183589	-5.846440191857495	-12.21597902204267	0.1874890222000768	45.00000025534012	0	0
43	6.425890907364569	-2.730475205710317	-753.2259821682011	0	0.9399999999999999	0	-11.51232901632272	0.6241197335280583	11.34015867182101	17.74759373992746	0.3097539450680684	13.1206787900174	0	0	21.50482920935935	-1.751866072171	5.669135234012587	5.774919333645793	0.100791356409196	-22.19596262883273	0	0	-8.141454296164142	-1.910130434118847	10.49728973709117	16.49869861442576	-14.9853435519637	19.07680772014305	0.08707376417200502	45.00000025534012	0	0	-5.238268880542474	-5.905111114794479	-11.97153179140463	0.165440339672423	45.00000025534012	0	0
43.025	5.381777913872602	-1.017343362995871	-753.0631974676623	0	0.9399999999999999	0	-8.847486315062469	-1.407743694259186	9.712066829947435	21.51745509804455	0.3755504381109167	10.65384986344936	0	0	21.88609017513166	-0.3727766606984632	5.783265990310095	7.992341566687372	0.1394926752826966	-19.36015055207699	0	0	-5.912235162035373	-3.197624655108851	9.090769135544798	13.80114608971952	-13.94407910153361	16.77388873722793	0.08044544677266265	45.00000025534012	0	0	-4.715817183767537	-6.245244767184896	-11.82758090139921	0.1451759991866205	45.00000025534012	0	0
43.05	2.839745130414459	1.040635622889673	-752.4023676662619	0	0.9399999999999999	0	-3.78187087795627	-3.757901057565592	7.335223977534647	26.4121081671715	0.4609782499100276	5.5126346497572	0	0	22.94945428149665	0.3383887553586197	6.521522107183097	9.150280553454619	0.1597025231389921	-16.93299382297357	0	0	-2.615170685636411	-4.11063475950761	7.198920102030873	11.05466874989669	-12.53824070301557	14.17469000279335	0.07301775330639633	45.00000025534012	0	0	-3.802508059357069	-6.562816218055828	-11.79808166295284	0.1371664514031235	45.00000025534012	0	0
43.075	4.453659639771018	-0.124180635152497	-752.532828197965	0	0.9399999999999999	0	-3.106396476930006	-6.274630373064848	5.870075423606076	32.02654627640268	0.5589686805655567	-0.2254155654518628	0	0	19.08103988451879	0.5708187001351263	7.18775793292366	9.317745788779979	0.1626253428780468	-15.85997617747464	0	0	-4.615837449059493	-4.540952767536762	5.769219473866745	8.392214734460598	-10.94662911281255	11.68614817026522	0.06496471595118594	45.00000025534012	0	0	-2.870046774117325	-6.792678967260854	-11.79170489201306	0.1399606573116687	45.00000025534012	0	0
43.1	4.802704737222537	-0.5606989043217917	-753.2420706061714	0	0.9399999999999999	0	-0.4681663062826585	-8.205417141452978	5.581237512571428	38.00139031354754	0.6632493813068848	-4.265124964331899	0	0	16.83385325623707	0.003701887599015579	6.809167405177294	9.111638670649095	0.1590280950548659	-15.24559717873508	0	0	-5.213747291715338	-4.885331421901923	4.56049158806393	6.11205989727481	-9.331993707130872	9.704267761080231	0.05708577241152746	45.00000025534012	0	0	-1.838967951330364	-7.128139565577754	-11.66842182119251	0.1472593387518023	45.00000025534012	0	0
43.125	4.657162867630834	-0.3015909279169066	-754.9640159528903	0	0.9399999999999999	0	3.443687307581072	-9.3337481284921	6.233309172333094	44.68230871275468	0.7798534044301184	-6.631588710181631	0	0	15.50612610428561	-0.7614977348067662	5.5595295905273	8.646369449414101	0.1509076152361254	-15.21258616060062	0	0	-4.890108813872343	-5.558373499724696	4.27695003291709	4.156234232400379	-7.926043629241721	8.503131414500579	0.05018683460863182	45.00000025534012	0	0	-0.851324579826459	-7.608235126765694	-11.14172520356371	0.1651200002346037	45.00000025534012	0	0
